<?xml version="1.0" standalone="no"?><!DOCTYPE svg PUBLIC "-//W3C//DTD SVG 1.1//EN" "http://www.w3.org/Graphics/SVG/1.1/DTD/svg11.dtd"><svg t="1537491545321" class="icon" style="" viewBox="0 0 1024 1024" version="1.1" xmlns="http://www.w3.org/2000/svg" p-id="4598" xmlns:xlink="http://www.w3.org/1999/xlink" width="32" height="32"><defs><style type="text/css"></style></defs><path d="M512 0a512 512 0 1 0 0 1024A512 512 0 0 0 512 0z m0 960c-247.04 0-448-200.96-448-448s200.96-448 448-448 448 200.96 448 448-200.96 448-448 448z" fill="" p-id="4599"></path><path d="M766.72 480H544V193.344a32 32 0 1 0-64 0V512a32 32 0 0 0 32 32h254.72a32 32 0 1 0 0-64z" fill="" p-id="4600"></path></svg>